<svg width="1439" height="824" viewBox="0 0 1439 824" fill="none" xmlns="http://www.w3.org/2000/svg">
<g clip-path="url(#clip0_1698_1580)">
<path d="M1439 0H0V824H1439V0Z" fill="white"/>
<path fill-rule="evenodd" clip-rule="evenodd" d="M-0.577148 -0.856689H1439.42V824.143H-0.577148V-0.856689Z" fill="url(#paint0_linear_1698_1580)"/>
<g style="mix-blend-mode:screen" opacity="0.152898">
<path style="mix-blend-mode:screen" opacity="0.152898" d="M1170.42 411.143C1175.94 411.143 1180.42 406.666 1180.42 401.143C1180.42 395.62 1175.94 391.143 1170.42 391.143C1164.9 391.143 1160.42 395.62 1160.42 401.143C1160.42 406.666 1164.9 411.143 1170.42 411.143Z" fill="url(#paint1_linear_1698_1580)"/>
</g>
<g style="mix-blend-mode:screen" opacity="0.867164">
<g style="mix-blend-mode:soft-light" opacity="0.241513">
<g style="mix-blend-mode:soft-light" opacity="0.241513">
<path fill-rule="evenodd" clip-rule="evenodd" d="M-249.659 469.884C-133.815 449.082 -30.4145 424.761 61.2338 399.043C152.927 373.302 232.903 346.138 302.983 319.1C373.1 292.053 433.33 265.101 486.393 239.562C493.025 236.315 499.551 233.245 505.972 230.091C512.395 226.97 518.707 223.796 524.924 220.726C531.146 217.681 537.27 214.638 543.297 211.599C546.313 210.091 549.298 208.54 552.272 207.067C555.246 205.596 558.196 204.127 561.126 202.659C584.532 190.765 606.661 179.747 627.905 169.42C633.233 166.896 638.496 164.379 643.697 161.872C648.941 159.515 654.125 157.165 659.261 154.826C660.544 154.243 661.826 153.661 663.102 153.079C664.39 152.538 665.676 151.997 666.959 151.457C669.525 150.379 672.077 149.301 674.618 148.227C677.163 147.168 679.68 146.048 682.217 145.047C684.761 144.072 687.297 143.103 689.822 142.137C710.005 134.396 729.966 128.167 750.044 124.581C770.084 120.998 790.306 120.119 809.99 123.191C829.635 126.233 848.678 133.284 865.233 144.732C881.79 156.153 895.782 171.907 905.435 191.616C915.099 211.327 920.458 234.948 920.096 262.184C919.811 289.37 913.485 320.451 899.996 355.043C886.58 389.6 865.503 428.028 835.178 470.233C773.999 554.755 676.395 654.85 515.18 773.252C353.893 891.019 127.474 1029.53 -198.866 1179.09C-362.147 1253.34 -549.334 1329.72 -759.792 1398.57C-969.239 1466.54 -1201.96 1526.97 -1432.97 1549.18C-1202.16 1526.92 -969.661 1466.52 -760.385 1398.59C-550.1 1329.78 -363.043 1253.45 -199.861 1179.25C126.281 1029.78 352.646 891.344 513.9 773.654C675.089 655.325 772.703 555.306 833.909 470.865C864.246 428.702 885.345 390.317 898.791 355.811C912.306 321.266 918.674 290.24 919.006 263.112C919.417 235.935 914.126 212.377 904.548 192.735C894.984 173.095 881.101 157.409 864.677 146.049C848.25 134.662 829.362 127.658 809.851 124.642C790.301 121.599 770.198 122.486 750.243 126.074C730.252 129.664 710.339 135.892 690.183 143.636C687.659 144.604 685.129 145.573 682.588 146.547C680.053 147.547 677.536 148.669 674.992 149.729C672.452 150.804 669.899 151.881 667.336 152.962C666.054 153.502 664.772 154.042 663.482 154.584C662.205 155.165 660.924 155.749 659.64 156.333C654.504 158.674 649.319 161.026 644.074 163.385C638.868 165.895 633.599 168.414 628.269 170.941C606.998 181.28 584.833 192.316 561.365 204.231C558.429 205.702 555.47 207.173 552.489 208.646C549.508 210.123 546.511 211.675 543.489 213.188C537.445 216.233 531.302 219.281 525.063 222.333C518.826 225.408 512.491 228.591 506.049 231.718C499.606 234.88 493.061 237.954 486.402 241.209C433.151 266.805 372.662 293.825 302.22 320.942C231.813 348.049 151.435 375.285 59.261 401.081C-32.8656 426.851 -136.825 451.213 -253.296 472.011" fill="white"/>
</g>
</g>
<g style="mix-blend-mode:soft-light" opacity="0.241513">
<g style="mix-blend-mode:soft-light" opacity="0.241513">
<path fill-rule="evenodd" clip-rule="evenodd" d="M-156.2 444.005C-48.7744 421.411 46.3591 396.014 130.26 369.644C214.204 343.251 286.927 315.862 350.444 288.811C413.993 261.754 468.331 235.01 516.257 209.739C522.236 206.53 528.154 203.489 533.955 200.37C539.763 197.282 545.458 194.147 551.087 191.112C556.724 188.1 562.269 185.093 567.728 182.091C570.46 180.599 573.156 179.072 575.856 177.614C578.558 176.16 581.239 174.708 583.9 173.257C605.127 161.512 625.338 150.618 644.869 140.399C649.778 137.9 654.628 135.408 659.424 132.926C664.287 130.584 669.099 128.254 673.866 125.933C675.059 125.355 676.249 124.776 677.435 124.199C678.64 123.661 679.841 123.123 681.04 122.585C683.44 121.511 685.828 120.439 688.205 119.37C690.59 118.314 692.936 117.203 695.325 116.203C697.725 115.23 700.116 114.259 702.499 113.293C721.545 105.556 740.679 99.263 760.367 95.4864C780.018 91.7153 800.297 90.5171 820.609 93.0915C840.881 95.6374 861.118 102.013 879.473 112.597C897.827 123.156 914.207 137.867 926.82 156.38C939.444 174.893 948.328 197.166 952.096 222.922C955.936 248.633 954.376 278.089 946.378 310.944C938.444 343.763 923.629 380.323 900.516 420.54C853.823 501.106 774.472 596.682 638.437 710.395C502.08 823.796 308.752 956.555 22.2611 1106.2C-121.325 1180.77 -287.448 1259.19 -479.491 1336.52C-670.869 1413.28 -888.167 1488.95 -1118.75 1544.78C-888.375 1488.93 -671.27 1413.3 -480.042 1336.58C-288.15 1259.28 -122.134 1180.91 21.3698 1106.38C307.699 956.813 500.972 824.117 637.302 710.787C773.316 597.139 852.669 501.635 899.394 421.148C922.521 380.971 937.36 344.453 945.322 311.681C953.354 278.873 954.95 249.464 951.165 223.811C947.452 198.111 938.641 175.899 926.109 157.449C913.592 139 897.33 124.355 879.116 113.852C860.899 103.323 840.822 96.9932 820.695 94.4697C800.527 91.9204 780.371 93.1242 760.813 96.898C741.215 100.677 722.137 106.967 703.123 114.706C700.744 115.673 698.356 116.644 695.96 117.616C693.577 118.617 691.232 119.729 688.849 120.785C686.473 121.855 684.085 122.926 681.69 124.002C680.493 124.54 679.291 125.077 678.087 125.617C676.902 126.195 675.712 126.772 674.52 127.352C669.756 129.674 664.943 132.007 660.081 134.349C655.283 136.834 650.429 139.328 645.519 141.83C625.974 152.062 605.732 162.971 584.455 174.737C581.789 176.189 579.103 177.644 576.395 179.101C573.69 180.56 570.984 182.092 568.245 183.587C562.775 186.595 557.212 189.606 551.56 192.625C545.916 195.666 540.201 198.807 534.376 201.903C528.556 205.027 522.621 208.074 516.621 211.291C468.534 236.619 413.971 263.431 350.136 290.56C286.329 317.681 213.244 345.146 128.871 371.605C44.5395 398.04 -51.1049 423.495 -159.11 446.11" fill="white"/>
</g>
</g>
<g style="mix-blend-mode:soft-light" opacity="0.241513">
<g style="mix-blend-mode:soft-light" opacity="0.241513">
<path fill-rule="evenodd" clip-rule="evenodd" d="M-73.1262 414.615C26.1604 390.658 113.433 364.489 190.018 337.7C266.636 310.89 332.583 283.432 389.981 256.485C447.407 229.531 496.284 203.066 539.47 178.108C544.845 174.94 550.201 171.934 555.432 168.856C560.676 165.808 565.799 162.715 570.887 159.72C575.988 156.746 581.001 153.778 585.935 150.818C588.406 149.345 590.834 147.839 593.285 146.401C595.737 144.965 598.169 143.532 600.583 142.101C619.807 130.516 638.268 119.759 656.237 109.657C660.764 107.183 665.241 104.718 669.668 102.264C674.187 99.9434 678.66 97.632 683.093 95.3311C684.203 94.7588 685.31 94.1853 686.413 93.6136C687.541 93.0767 688.668 92.5425 689.792 92.0083C692.04 90.9384 694.282 89.8737 696.511 88.8102C698.75 87.7605 700.943 86.6585 703.196 85.6615C705.467 84.6901 707.728 83.7209 709.984 82.7562C728.012 75.0313 746.414 68.687 765.778 64.7403C785.101 60.7977 805.467 59.3095 826.386 61.4225C847.261 63.5111 868.625 69.2525 888.653 79.0347C908.679 88.792 927.263 102.53 942.585 119.923C957.924 137.317 970.025 158.327 977.541 182.697C985.125 207.022 987.882 234.957 984.819 266.174C981.818 297.358 972.613 332.154 955.934 370.491C922.162 447.304 858.955 538.599 745.145 647.65C630.92 756.559 466.463 883.753 217.169 1030.52C92.0982 1103.79 -53.663 1181.77 -225.361 1262.25C-396.655 1342.38 -593.885 1425.01 -812.545 1499.53C-594.088 1425.02 -397.026 1342.42 -225.863 1262.33C-54.2951 1181.88 91.3749 1103.94 216.375 1030.71C465.532 884.007 629.937 756.872 744.139 648.028C857.926 539.042 921.137 447.809 954.94 371.074C971.635 332.774 980.861 298.02 983.896 266.88C986.991 235.707 984.275 207.818 976.752 183.548C969.294 159.232 957.267 138.279 942.03 120.945C926.807 103.61 908.354 89.9365 888.477 80.2309C868.597 70.5019 847.398 64.7989 826.676 62.7317C805.908 60.6407 785.674 62.1318 766.445 66.0748C747.179 70.0218 728.839 76.3624 710.85 84.0877C708.598 85.0526 706.343 86.0228 704.075 86.9926C701.826 87.989 699.636 89.0945 697.399 90.1439C695.172 91.206 692.936 92.2728 690.691 93.3417C689.569 93.8775 688.441 94.4113 687.315 94.9474C686.214 95.5209 685.105 96.0931 683.998 96.6666C679.566 98.9681 675.097 101.281 670.58 103.603C666.154 106.06 661.676 108.527 657.148 111.003C639.174 121.115 620.692 131.887 601.429 143.491C599.011 144.925 596.575 146.361 594.118 147.798C591.666 149.24 589.227 150.749 586.75 152.223C581.805 155.189 576.777 158.162 571.666 161.142C566.565 164.141 561.425 167.242 556.167 170.296C550.924 173.381 545.55 176.391 540.158 179.568C496.837 204.579 447.77 231.113 390.089 258.139C332.436 285.158 266.169 312.696 189.166 339.579C112.193 366.442 24.4612 392.676 -75.3607 416.678" fill="white"/>
</g>
</g>
<g style="mix-blend-mode:soft-light" opacity="0.241513">
<g style="mix-blend-mode:soft-light" opacity="0.241513">
<path fill-rule="evenodd" clip-rule="evenodd" d="M-308.797 455.11C-193.649 435.654 -90.6152 412.46 0.765991 387.536C92.1927 362.577 171.962 335.917 241.621 308.919C311.304 281.905 370.881 254.529 422.553 227.802C474.253 201.071 518.042 174.961 556.834 150.377C561.65 147.259 566.489 144.293 571.188 141.264C575.907 138.261 580.506 135.218 585.093 132.27C589.694 129.34 594.221 126.417 598.669 123.503C600.9 122.055 603.083 120.574 605.302 119.157C607.524 117.744 609.726 116.33 611.913 114.921C629.293 103.521 646.148 92.916 662.688 82.9478C666.869 80.5032 671.003 78.0715 675.093 75.6475C679.297 73.3497 683.464 71.0631 687.593 68.7868C688.626 68.2199 689.659 67.6534 690.688 67.087C691.747 66.5556 692.806 66.0236 693.863 65.4937C695.975 64.433 698.078 63.3753 700.176 62.3201C702.285 61.2781 704.338 60.1865 706.47 59.1944C708.623 58.2254 710.77 57.2604 712.912 56.299C730.02 48.6017 747.777 42.2227 766.867 38.1241C785.918 34.0306 806.388 32.2723 827.891 33.9525C849.344 35.6088 871.765 40.7545 893.342 49.7716C914.912 58.7646 935.524 71.5712 953.333 87.8948C971.16 104.217 986.198 124.017 997.128 147.052C1008.11 170.042 1014.79 196.512 1016.19 226.15C1017.64 255.755 1013.49 288.842 1002.58 325.358C980.394 398.516 931.552 485.67 837.412 590.068C742.841 694.419 603.645 816.175 388.202 958.445C280.053 1029.54 153.2 1105.68 1.82184 1186.17C-149.328 1266.46 -325.002 1351.09 -525.501 1434.61C-325.188 1351.11 -149.659 1266.51 1.37775 1186.25C152.643 1105.8 279.415 1029.69 387.498 958.629C602.824 816.418 741.969 694.721 836.517 590.43C930.634 486.092 979.483 399.004 1001.7 325.915C1012.63 289.438 1016.8 256.389 1015.38 226.825C1014.02 197.23 1007.39 170.806 996.463 147.865C985.598 124.881 970.638 105.138 952.92 88.8703C935.216 72.6048 914.743 59.8558 893.327 50.9114C871.91 41.9429 849.66 36.8328 828.366 35.1944C807.022 33.5332 786.688 35.2922 767.737 39.3839C748.748 43.4792 731.061 49.856 713.997 57.5514C711.86 58.5123 709.721 59.4785 707.571 60.446C705.442 61.4375 703.395 62.5306 701.29 63.5731C699.196 64.627 697.095 65.6863 694.987 66.7469C693.933 67.278 692.875 67.8076 691.818 68.3407C690.791 68.9067 689.758 69.4736 688.727 70.0408C684.601 72.3181 680.442 74.6059 676.239 76.9055C672.151 79.3302 668.019 81.7651 663.84 84.211C647.301 94.1888 630.434 104.805 613.025 116.225C610.834 117.636 608.628 119.05 606.404 120.467C604.182 121.886 601.992 123.368 599.757 124.821C595.298 127.74 590.763 130.667 586.153 133.602C581.556 136.557 576.944 139.605 572.213 142.614C567.499 145.65 562.651 148.621 557.82 151.745C518.916 176.38 474.962 202.556 423.042 229.361C371.146 256.162 311.292 283.614 241.263 310.708C171.258 337.784 91.0752 364.52 -0.839661 389.537C-92.7074 414.52 -196.297 437.753 -312.066 457.207" fill="white"/>
</g>
</g>
<g style="mix-blend-mode:soft-light" opacity="0.241513">
<g style="mix-blend-mode:soft-light" opacity="0.241513">
<path fill-rule="evenodd" clip-rule="evenodd" d="M-218.014 430.066C-110.951 408.799 -15.9213 384.473 67.8846 358.837C151.723 333.171 224.344 306.22 287.428 279.166C350.533 252.096 404.101 224.903 450.4 198.459C496.725 172.011 535.765 146.292 570.473 122.099C574.771 119.034 579.124 116.112 583.332 113.13C587.565 110.174 591.679 107.186 595.8 104.283C599.942 101.398 604.012 98.5234 608.014 95.6565C610.022 94.2309 611.979 92.7746 613.984 91.3804C615.991 89.9879 617.983 88.5981 619.96 87.2105C635.637 75.9958 651.013 65.544 666.249 55.7108C670.111 53.2974 673.933 50.8957 677.716 48.5039C681.636 46.2293 685.52 43.9662 689.375 41.7164C690.342 41.1559 691.305 40.5946 692.265 40.0352C693.262 39.5065 694.259 38.9799 695.254 38.4536C697.244 37.4017 699.226 36.352 701.202 35.306C703.191 34.2718 705.117 33.1897 707.142 32.2032C709.19 31.2384 711.234 30.2781 713.27 29.32C729.555 21.6571 746.737 15.2465 765.6 11.0155C784.424 6.78685 805.018 4.78382 827.078 6.06929C849.083 7.33147 872.499 11.9305 895.505 20.2445C918.508 28.5346 940.989 40.487 961.08 55.8213C981.189 71.1554 998.921 89.835 1012.97 111.635C1027.06 133.392 1037.31 158.502 1042.76 186.671C1048.26 214.809 1048.69 246.31 1042.98 281.122C1031.26 350.877 995.296 434.152 918.646 534.139C841.597 634.125 724.616 750.796 539.56 887.996C354.479 1024.51 98.8034 1184.56 -261.513 1358.61C98.463 1184.61 353.964 1024.64 538.939 888.173C723.882 751.034 840.826 634.411 917.85 534.485C994.478 434.552 1030.45 351.34 1042.2 281.655C1047.92 246.875 1047.52 215.415 1042.06 187.317C1036.64 159.189 1026.44 134.122 1012.41 112.413C998.435 90.6631 980.79 72.0364 960.792 56.7542C940.814 41.4724 918.475 29.5764 895.637 21.3304C872.79 13.0618 849.563 8.49593 827.719 7.2482C805.824 5.97889 785.372 7.98059 766.655 12.206C747.899 16.4352 730.79 22.8386 714.556 30.4992C712.524 31.4565 710.486 32.4168 708.445 33.3814C706.428 34.3681 704.505 35.4501 702.52 36.4837C700.547 37.5302 698.57 38.5788 696.585 39.6315C695.593 40.1573 694.598 40.6851 693.604 41.2129C692.644 41.7727 691.683 42.3332 690.718 42.8948C686.869 45.1466 682.991 47.4092 679.077 49.6848C675.298 52.0775 671.479 54.4813 667.621 56.8966C652.394 66.739 637.012 77.1979 621.314 88.4318C619.336 89.8216 617.343 91.2127 615.331 92.607C613.326 94.0049 611.362 95.4614 609.351 96.8897C605.34 99.7607 601.264 102.641 597.116 105.531C592.988 108.439 588.865 111.435 584.622 114.396C580.403 117.383 576.042 120.308 571.732 123.382C536.932 147.622 497.753 173.405 451.239 199.925C404.747 226.44 350.934 253.714 287.523 280.863C224.135 307.998 151.143 335.03 66.862 360.766C-17.3841 386.472 -112.925 410.855 -220.563 432.145" fill="white"/>
</g>
</g>
<g style="mix-blend-mode:soft-light" opacity="0.241513">
<g style="mix-blend-mode:soft-light" opacity="0.241513">
<path fill-rule="evenodd" clip-rule="evenodd" d="M-137.979 405.061C-38.8452 382.415 48.4697 357.308 125.032 331.255C201.622 305.174 267.47 278.173 324.363 251.263C381.274 224.341 429.226 197.493 470.516 171.473C511.829 145.451 546.471 120.239 577.42 96.5362C581.24 93.5352 585.149 90.6687 588.906 87.7487C592.695 84.8523 596.359 81.9255 600.053 79.0819C603.773 76.2544 607.427 73.4359 611.019 70.6294C612.824 69.2329 614.575 67.8081 616.384 66.4404C618.196 65.0741 619.996 63.7123 621.781 62.3518C635.904 51.3629 649.942 41.1057 664 31.4399C667.576 29.0653 671.116 26.7026 674.625 24.3512C678.289 22.1088 681.923 19.8785 685.531 17.6597C686.438 17.1073 687.336 16.554 688.238 16.0024C689.18 15.4805 690.12 14.9588 691.061 14.4393C692.94 13.3984 694.816 12.3611 696.685 11.3272C698.569 10.3044 700.382 9.23619 702.31 8.25979C704.266 7.30253 706.217 6.34865 708.162 5.3984C723.722 -2.20451 740.413 -8.61872 759.102 -12.9674C777.751 -17.3121 798.49 -19.5452 821.084 -18.6476C843.623 -17.7711 867.965 -13.7168 892.292 -6.11138C916.615 1.47129 940.807 12.555 962.981 26.8842C985.173 41.2133 1005.35 58.7489 1022.23 79.2825C1039.15 99.7769 1052.63 123.489 1061.74 150.147C1070.9 176.777 1075.46 206.638 1074.43 239.696C1072.1 305.932 1047.66 385.202 986.502 480.607C924.996 576.024 827.503 687.472 669.321 818.975C510.799 950.178 290.68 1102.93 -27.5501 1275.89C290.383 1102.98 510.347 950.294 668.771 819.145C826.857 687.698 924.305 576.296 985.793 480.934C1046.93 385.584 1071.37 306.37 1073.74 240.202C1074.79 207.177 1070.26 177.353 1061.13 150.761C1052.05 124.143 1038.62 100.471 1021.77 80.0244C1004.97 59.5362 984.876 42.0494 962.804 27.7722C940.748 13.4943 916.704 2.46105 892.552 -5.0801C868.392 -12.644 844.245 -16.6692 821.875 -17.5323C799.455 -18.4158 778.856 -16.188 760.323 -11.8471C741.746 -7.50427 725.128 -1.09812 709.628 6.50255C707.687 7.4515 705.744 8.40556 703.795 9.36159C701.874 10.3394 700.064 11.4073 698.185 12.4287C696.322 13.4627 694.453 14.4994 692.579 15.54C691.642 16.0613 690.703 16.5815 689.764 17.1032C688.865 17.6548 687.965 18.2068 687.062 18.7606C683.461 20.9799 679.833 23.2103 676.178 25.4532C672.674 27.8056 669.138 30.1695 665.569 32.5449C651.526 42.2174 637.493 52.4828 623.355 63.4877C621.569 64.8504 619.771 66.2147 617.956 67.5821C616.146 68.951 614.392 70.3773 612.584 71.7768C608.986 74.589 605.327 77.4111 601.604 80.2429C597.903 83.0922 594.231 86.0238 590.435 88.926C586.67 91.8511 582.756 94.7213 578.927 97.7292C547.905 121.476 513.151 146.751 471.672 172.841C430.217 198.93 382.057 225.857 324.874 252.861C267.711 279.851 201.536 306.938 124.547 333.096C47.5869 359.226 -40.1887 384.401 -139.854 407.092" fill="white"/>
</g>
</g>
<g style="mix-blend-mode:soft-light" opacity="0.241513">
<g style="mix-blend-mode:soft-light" opacity="0.241513">
<path fill-rule="evenodd" clip-rule="evenodd" d="M-67.3681 379.184C24.1495 355.464 104.14 329.772 173.87 303.424C243.619 277.052 303.119 250.047 354.228 223.29C405.352 196.52 448.075 169.981 484.722 144.327C521.397 118.673 551.977 93.8843 579.486 70.5845C582.866 67.6349 586.371 64.8162 589.716 61.9452C593.097 59.0976 596.351 56.2219 599.659 53.4255C602.993 50.6441 606.269 47.8725 609.49 45.1125C611.112 43.7378 612.671 42.3386 614.305 40.9937C615.941 39.6506 617.563 38.3088 619.176 36.9704C631.893 26.1621 644.727 16.0548 657.74 6.519C661.06 4.17469 664.354 1.84133 667.617 -0.479965C671.054 -2.69922 674.469 -4.90633 677.862 -7.10095C678.713 -7.64789 679.561 -8.19439 680.409 -8.73998C681.304 -9.25757 682.198 -9.77458 683.089 -10.291C684.874 -11.3233 686.654 -12.3521 688.43 -13.3777C690.222 -14.3942 691.941 -15.449 693.785 -16.422C695.661 -17.3743 697.533 -18.3244 699.404 -19.2697C714.341 -26.8376 730.64 -33.272 749.225 -37.733C767.769 -42.1906 788.706 -44.6304 811.85 -44.0708C834.939 -43.5325 860.181 -39.946 885.773 -32.9449C911.358 -25.9664 937.169 -15.6189 961.29 -2.1455C985.431 11.3275 1007.9 27.8937 1027.39 47.3506C1046.93 66.7713 1063.39 89.2953 1075.87 114.668C1088.4 140.014 1096.74 168.481 1099.97 200.042C1106.2 263.278 1092.19 339.134 1044.86 430.614C997.232 522.112 916.95 629.111 782.416 755.561C647.42 881.915 458.123 1028.36 179.313 1197.58C457.86 1028.43 647.025 882.021 781.928 755.721C916.379 629.32 996.611 522.37 1044.22 430.924C1091.53 339.494 1105.55 263.697 1099.35 200.525C1096.14 168.998 1087.83 140.563 1075.34 115.256C1062.9 89.9193 1046.49 67.4356 1027.02 48.0604C1007.6 28.6463 985.229 12.1303 961.211 -1.29576C937.212 -14.721 911.556 -25.0194 886.147 -31.9604C860.73 -38.9241 835.686 -42.4816 812.772 -43.0105C789.805 -43.5595 769.023 -41.1232 750.594 -36.6728C732.127 -32.2184 715.91 -25.7943 701.033 -18.2312C699.171 -17.2854 697.305 -16.338 695.438 -15.3852C693.601 -14.4133 691.888 -13.3571 690.101 -12.3419C688.331 -11.316 686.557 -10.2891 684.778 -9.25584C683.889 -8.74022 682.998 -8.22342 682.107 -7.70594C681.262 -7.16047 680.415 -6.61365 679.568 -6.06666C676.182 -3.87144 672.779 -1.66477 669.349 0.553749C666.091 2.87626 662.805 5.2103 659.491 7.55615C646.501 17.0972 633.675 27.2102 620.954 38.0331C619.342 39.3731 617.718 40.7156 616.082 42.0608C614.449 43.4082 612.886 44.8096 611.263 46.1855C608.039 48.9501 604.763 51.726 601.424 54.5102C598.112 57.3121 594.853 60.1911 591.467 63.0447C588.116 65.9189 584.609 68.7431 581.22 71.6988C553.66 95.0408 522.983 119.887 486.174 145.608C449.387 171.328 406.485 197.945 355.121 224.795C303.778 251.635 243.985 278.726 173.881 305.18C103.799 331.611 23.3883 357.38 -68.6143 381.16" fill="white"/>
</g>
</g>
<g style="mix-blend-mode:soft-light" opacity="0.241513">
<g style="mix-blend-mode:soft-light" opacity="0.241513">
<path fill-rule="evenodd" clip-rule="evenodd" d="M-288.022 419.225C-180.934 399.677 -85.5926 376.813 -1.43134 352.362C82.7636 327.886 155.793 301.87 219.063 275.449C282.347 249.009 335.892 222.186 381.593 195.743C427.311 169.288 465.172 143.192 497.53 118.023C529.914 92.8534 556.773 68.5916 581.153 45.7807C584.137 42.8957 587.271 40.13 590.244 37.3212C593.256 34.5331 596.141 31.7181 599.099 28.9789C602.084 26.2531 605.02 23.5398 607.906 20.8354C609.363 19.4906 610.753 18.1198 612.228 16.8014C613.704 15.484 615.171 14.1689 616.627 12.8571C628.084 2.26699 639.852 -7.65618 651.95 -17.0327C655.049 -19.3399 658.122 -21.6364 661.176 -23.9203C664.418 -26.1084 667.642 -28.285 670.85 -30.4492C671.654 -30.989 672.457 -31.5277 673.261 -32.0658C674.112 -32.579 674.966 -33.089 675.817 -33.5994C677.52 -34.6209 679.22 -35.6385 680.919 -36.6522C682.632 -37.657 684.271 -38.6987 686.045 -39.6627C687.853 -40.6097 689.661 -41.5503 691.467 -42.4894C705.889 -49.9989 721.882 -56.4327 740.429 -60.9916C758.934 -65.5462 780.097 -68.1837 803.789 -67.9589C827.422 -67.7547 853.53 -64.6395 880.303 -58.2535C907.068 -51.8888 934.37 -42.2976 960.282 -29.7039C986.215 -17.1102 1010.76 -1.54851 1032.65 16.7941C1054.58 35.1035 1073.75 56.3933 1089.29 80.43C1104.87 104.44 1116.64 131.455 1123.72 161.456C1137.69 221.566 1133.06 293.854 1098.04 381.24C1062.78 468.64 997.7 571.021 883.914 692.149C769.651 813.276 607.029 953.367 363.915 1116.78C606.795 953.428 769.297 813.379 883.481 692.3C997.186 571.218 1062.23 468.884 1097.47 381.534C1132.47 294.196 1137.1 221.964 1123.17 161.915C1116.11 131.946 1104.37 104.962 1088.83 80.989C1073.33 56.9895 1054.2 35.7351 1032.36 17.4704C1010.54 -0.830807 986.094 -16.3465 960.288 -28.8943C934.502 -41.4422 907.36 -50.9879 880.777 -57.3166C854.186 -63.6667 828.281 -66.7583 804.83 -66.955C781.321 -67.1713 760.314 -64.5392 741.93 -59.9931C723.507 -55.4433 707.601 -49.0195 693.245 -41.5171C691.446 -40.5796 689.648 -39.6387 687.847 -38.693C686.08 -37.7298 684.451 -36.6876 682.741 -35.6839C681.05 -34.6701 679.357 -33.6538 677.66 -32.6333C676.813 -32.1229 675.963 -31.6126 675.113 -31.1004C674.313 -30.5622 673.512 -30.0239 672.712 -29.4832C669.514 -27.3204 666.301 -25.1436 663.068 -22.9556C660.022 -20.6712 656.957 -18.375 653.865 -16.067C641.797 -6.68633 630.045 3.24228 618.591 13.8432C617.135 15.157 615.67 16.4734 614.192 17.792C612.718 19.1135 611.326 20.483 609.871 21.8316C606.985 24.5386 604.047 27.2572 601.06 29.9856C598.101 32.7286 595.211 35.547 592.197 38.3405C589.223 41.1544 586.085 43.9232 583.097 46.8137C558.681 69.6629 531.747 93.9781 499.251 119.212C466.778 144.445 428.762 170.613 382.838 197.149C336.929 223.675 283.131 250.583 219.53 277.109C155.944 303.614 82.5417 329.715 -2.09518 354.262C-86.7128 378.787 -182.576 401.714 -290.244 421.285" fill="white"/>
</g>
</g>
<g style="mix-blend-mode:soft-light" opacity="0.241513">
<g style="mix-blend-mode:soft-light" opacity="0.241513">
<path fill-rule="evenodd" clip-rule="evenodd" d="M-212.48 394.302C-112.881 373.284 -24.898 349.534 52.2936 324.571C129.513 299.584 195.969 273.427 253.166 247.076C310.375 220.707 358.348 194.17 399.015 168.112C439.698 142.046 473.056 116.444 501.461 91.7929C529.893 67.1407 553.349 43.4205 574.908 21.1081C577.533 18.2882 580.336 15.579 582.972 12.8303C585.652 10.1011 588.205 7.3499 590.849 4.66873C593.527 2.00064 596.155 -0.657699 598.744 -3.30389C600.051 -4.62199 601.293 -5.96013 602.625 -7.2538C603.962 -8.54486 605.288 -9.83331 606.607 -11.1186C616.947 -21.4892 627.783 -31.2298 639.094 -40.4477C642 -42.7191 644.892 -44.9761 647.763 -47.2237C650.84 -49.3821 653.906 -51.5276 656.958 -53.6611C657.724 -54.1939 658.49 -54.7249 659.254 -55.2555C660.073 -55.7617 660.892 -56.2674 661.71 -56.7721C663.347 -57.7808 664.981 -58.7871 666.614 -59.79C668.267 -60.7846 669.835 -61.812 671.554 -62.767C673.309 -63.7053 675.066 -64.64 676.82 -65.5712C690.835 -73.0201 706.616 -79.4496 725.195 -84.0985C743.731 -88.7423 765.173 -91.5646 789.427 -91.6543C813.621 -91.7633 840.57 -89.0924 868.466 -83.29C896.355 -77.5063 925.059 -68.6313 952.633 -56.8762C980.232 -45.1196 1006.71 -30.5147 1030.8 -13.2355C1054.92 4.01143 1076.59 24.1213 1094.94 46.8773C1113.31 69.6074 1128.22 95.2308 1138.81 123.734C1159.82 180.842 1163.72 249.699 1139.74 333.148C1115.56 416.609 1064.01 514.552 968.455 630.56C872.465 746.605 732.989 880.717 521.536 1037.73C732.786 880.77 872.154 746.703 968.069 630.7C1063.55 514.737 1115.06 416.836 1139.22 333.424C1163.18 250.022 1159.29 181.218 1138.31 124.168C1127.75 95.6969 1112.87 70.1053 1094.53 47.4087C1076.23 24.6885 1054.61 4.61369 1030.57 -12.5911C1006.55 -29.8307 980.178 -44.391 952.709 -56.1046C925.266 -67.8174 896.728 -76.6486 869.026 -82.3993C841.317 -88.1693 814.576 -90.8182 790.569 -90.7037C766.507 -90.6067 745.223 -87.7932 726.815 -83.1589C708.363 -78.5208 692.674 -72.1028 678.731 -64.6619C676.985 -63.7312 675.239 -62.7989 673.491 -61.8612C671.782 -60.9071 670.219 -59.8789 668.574 -58.8862C666.947 -57.8844 665.321 -56.8782 663.692 -55.8702C662.878 -55.3653 662.062 -54.861 661.246 -54.3554C660.484 -53.8241 659.722 -53.2944 658.96 -52.7611C655.919 -50.6286 652.866 -48.4838 649.801 -46.3265C646.936 -44.0805 644.058 -41.8198 641.159 -39.5502C629.883 -30.3291 619.068 -20.5866 608.739 -10.2051C607.423 -8.91832 606.096 -7.62952 604.761 -6.33682C603.43 -5.04174 602.188 -3.70269 600.882 -2.3826C598.295 0.26742 595.665 2.92853 592.99 5.59925C590.346 8.28451 587.791 11.04 585.111 13.7735C582.474 16.525 579.67 19.2364 577.043 22.0624C555.464 44.4101 531.953 68.1802 503.429 92.8923C474.931 117.605 441.441 143.276 400.582 169.421C359.735 195.557 311.541 222.179 254.053 248.635C196.577 275.073 129.787 301.318 52.1688 326.385C-25.4341 351.431 -113.894 375.252 -214.03 396.319" fill="white"/>
</g>
</g>
<g style="mix-blend-mode:soft-light" opacity="0.241513">
<g style="mix-blend-mode:soft-light" opacity="0.241513">
<path fill-rule="evenodd" clip-rule="evenodd" d="M-142.397 370.281C-50.2606 348.147 30.502 323.771 100.907 298.483C171.335 273.174 231.443 246.992 282.809 220.786C334.182 194.564 376.838 168.341 412.724 142.673C448.625 116.998 477.731 91.8671 502.432 67.6922C527.159 43.5174 547.458 20.2846 566.43 -1.58949C568.726 -4.35287 571.224 -7.01065 573.553 -9.70596C575.93 -12.3827 578.183 -15.0801 580.541 -17.7111C582.933 -20.3304 585.289 -22.9379 587.605 -25.5357C588.778 -26.8294 589.884 -28.1407 591.087 -29.412C592.296 -30.6806 593.5 -31.9458 594.693 -33.2086C604.024 -43.3918 614.032 -52.9746 624.653 -62.0595C627.393 -64.2996 630.12 -66.5273 632.838 -68.7426C635.771 -70.8757 638.696 -72.9969 641.617 -75.1042C642.35 -75.6311 643.082 -76.1556 643.815 -76.6798C644.605 -77.1816 645.394 -77.6826 646.184 -78.1819C647.764 -79.1824 649.343 -80.1785 650.922 -81.1716C652.522 -82.1569 654.032 -83.1741 655.706 -84.1224C657.416 -85.0552 659.13 -85.9834 660.842 -86.9092C674.521 -94.3104 690.146 -100.741 708.788 -105.47C727.385 -110.195 749.112 -113.177 773.893 -113.539C798.616 -113.918 826.339 -111.63 855.256 -106.327C884.166 -101.043 914.135 -92.7855 943.212 -81.7536C972.313 -70.7203 1000.54 -56.9456 1026.62 -40.5934C1052.74 -24.2728 1076.68 -5.19274 1097.58 16.4384C1118.51 38.0446 1136.27 62.4436 1150.07 89.6223C1177.53 144.082 1189.23 209.893 1175.32 289.839C1161.24 369.793 1121.96 463.785 1042.79 575.215C963.227 686.694 844.297 815.524 661.168 966.435C844.119 815.572 962.951 686.783 1042.44 575.345C1121.54 463.959 1160.79 370.005 1174.85 290.098C1188.75 210.2 1177.05 144.435 1149.63 90.035C1135.85 62.8848 1118.11 38.5195 1097.22 16.9442C1076.37 -4.65162 1052.49 -23.698 1026.44 -39.978C1000.44 -56.2912 972.317 -70.0253 943.35 -81.0159C914.404 -92.0073 884.605 -100.223 855.889 -105.476C827.162 -110.749 799.653 -113.017 775.122 -112.634C750.534 -112.269 728.974 -109.295 710.508 -104.582C691.999 -99.8644 676.47 -93.4461 662.868 -86.0543C661.165 -85.13 659.463 -84.2027 657.76 -83.2718C656.097 -82.3249 654.593 -81.3078 653.001 -80.3238C651.429 -79.3314 649.859 -78.3353 648.288 -77.3368C647.502 -76.8368 646.716 -76.3373 645.929 -75.8361C645.201 -75.3127 644.472 -74.7861 643.742 -74.2614C640.833 -72.1546 637.924 -70.0344 635.002 -67.9032C632.296 -65.6883 629.579 -63.4599 626.85 -61.2214C616.27 -52.1364 606.292 -42.5497 596.975 -32.3587C595.784 -31.0946 594.582 -29.8292 593.375 -28.5603C592.174 -27.2884 591.07 -25.9744 589.899 -24.6798C587.583 -22.08 585.231 -19.4683 582.842 -16.8473C580.485 -14.2124 578.233 -11.5126 575.858 -8.83157C573.529 -6.13408 571.032 -3.47189 568.735 -0.704834C549.761 21.2006 529.425 44.4806 504.625 68.7106C479.85 92.9408 450.636 118.141 414.587 143.892C378.549 169.636 335.699 195.94 284.083 222.251C232.471 248.543 172.066 274.815 101.282 300.209C30.5063 325.586 -50.6874 350.045 -143.316 372.241" fill="white"/>
</g>
</g>
<g style="mix-blend-mode:soft-light" opacity="0.241513">
<g style="mix-blend-mode:soft-light" opacity="0.241513">
<path fill-rule="evenodd" clip-rule="evenodd" d="M141.743 274.053C77.6353 299.507 3.60692 324.309 -81.5171 347.304L-81.8496 349.192C3.72295 326.121 78.1436 301.229 142.58 275.684C207.026 250.122 261.538 223.949 307.75 197.899C353.966 171.834 391.913 145.917 423.559 120.624C455.218 95.3252 480.553 70.6409 501.974 46.9214C522.03 24.7423 538.643 3.39414 554.378 -16.8235C555.47 -18.2269 556.559 -19.6247 557.643 -21.0171C558.864 -22.6641 560.168 -24.2745 561.466 -25.878C562.302 -26.9116 563.136 -27.9423 563.944 -28.9782C564.89 -30.154 565.811 -31.333 566.729 -32.5084C567.863 -33.9592 568.992 -35.4045 570.157 -36.8313C572.302 -39.4022 574.417 -41.9618 576.5 -44.511C576.898 -44.9891 577.286 -45.4698 577.673 -45.95C578.315 -46.7453 578.956 -47.5389 579.638 -48.3163C580.738 -49.5619 581.83 -50.805 582.917 -52.0453C591.38 -62.0439 600.675 -71.4695 610.711 -80.4185C613.309 -82.6258 615.897 -84.8219 618.484 -87.0052C621.294 -89.1119 624.106 -91.2043 626.912 -93.2861C627.617 -93.8058 628.323 -94.3241 629.029 -94.8418C629.793 -95.338 630.558 -95.834 631.324 -96.328C632.855 -97.3182 634.389 -98.3025 635.922 -99.2864C636.441 -99.6122 636.949 -99.9412 637.458 -100.27C638.472 -100.926 639.485 -101.58 640.573 -102.207C642.247 -103.131 643.923 -104.053 645.6 -104.971C658.994 -112.314 674.486 -118.73 693.159 -123.525C711.789 -128.315 733.713 -131.444 758.884 -132.074C783.998 -132.72 812.307 -130.824 842.05 -126.041C871.779 -121.277 902.804 -113.665 933.185 -103.384C963.585 -93.1035 993.348 -80.187 1021.23 -64.786C1049.13 -49.4175 1075.13 -31.3892 1098.34 -10.9017C1121.59 9.56553 1141.96 32.7196 1158.68 58.5641C1178.69 89.6604 1193.46 124.714 1201.02 164.313C1201.19 164.325 1201.36 164.34 1201.53 164.359C1193.99 124.59 1179.17 89.3926 1159.08 58.1732C1142.34 32.3 1121.95 9.11706 1098.65 -11.3832C1075.39 -31.9042 1049.35 -49.9664 1021.36 -65.3725C993.402 -80.81 963.534 -93.769 932.997 -104.088C902.481 -114.408 871.286 -122.059 841.357 -126.852C811.421 -131.664 782.892 -133.577 757.581 -132.934C732.21 -132.308 710.116 -129.167 691.349 -124.364C672.54 -119.558 656.944 -113.124 643.47 -105.772C641.783 -104.851 640.096 -103.929 638.412 -103.003C637.33 -102.384 636.323 -101.736 635.315 -101.086C634.791 -100.75 634.268 -100.413 633.734 -100.08C632.193 -99.095 630.653 -98.1088 629.112 -97.1184C628.343 -96.6234 627.571 -96.127 626.802 -95.6305C626.094 -95.1133 625.385 -94.5938 624.677 -94.074C621.854 -91.9909 619.029 -89.8952 616.203 -87.7884C613.606 -85.6037 611.002 -83.4076 608.393 -81.1998C598.312 -72.2481 588.982 -62.8234 580.496 -52.8316C579.406 -51.5932 578.31 -50.3503 577.208 -49.1052C576.533 -48.338 575.899 -47.5552 575.264 -46.7708C574.868 -46.281 574.471 -45.7906 574.063 -45.3031C571.976 -42.7557 569.857 -40.1977 567.707 -37.6294C566.534 -36.2002 565.401 -34.7513 564.263 -33.2971C563.348 -32.1274 562.43 -30.9543 561.487 -29.7853C560.67 -28.7407 559.828 -27.7014 558.982 -26.6592C557.69 -25.0668 556.392 -23.4678 555.178 -21.8333C553.966 -20.2805 552.75 -18.7209 551.529 -17.1546C535.902 2.88949 519.418 24.0333 499.572 45.9828C478.203 69.6488 452.957 94.2703 421.422 119.497C389.904 144.717 352.12 170.553 306.119 196.533C260.121 222.497 205.87 248.581 141.743 274.053ZM1205.32 190.221C1205.17 190.284 1205.02 190.343 1204.87 190.401C1206.84 209.149 1207.26 228.847 1205.94 249.549C1200.95 326.001 1172.62 416.071 1107.84 522.994C1042.74 629.961 941.653 753.682 783.068 898.544C941.813 753.641 1042.99 629.883 1108.16 522.874C1173 415.911 1201.36 325.802 1206.37 249.306C1207.69 228.629 1207.28 208.952 1205.32 190.221Z" fill="white"/>
</g>
</g>
<g style="mix-blend-mode:soft-light" opacity="0.241513">
<g style="mix-blend-mode:soft-light" opacity="0.241513">
<path fill-rule="evenodd" clip-rule="evenodd" d="M-25.5905 322.743C-103.541 346.1 -192.737 367.615 -290.388 384.109L-292.152 386.222C-193.59 369.631 -103.815 348.009 -25.3769 324.548C53.1282 300.902 120.848 275.805 179.068 250.272C237.292 224.725 286.068 198.785 327.058 173.083C368.047 147.366 401.288 121.913 428.748 97.1251C456.224 72.3311 477.892 48.1911 496.183 25.0041C511.168 6.03486 523.877 -12.3089 536.032 -29.8521C538.734 -33.7526 541.409 -37.6135 544.075 -41.4328C545.154 -43.067 546.325 -44.6669 547.492 -46.2603C548.217 -47.2502 548.94 -48.2376 549.637 -49.2293C550.445 -50.3375 551.231 -51.4489 552.015 -52.5574C553.05 -54.0213 554.082 -55.4803 555.157 -56.9208C557.084 -59.44 558.987 -61.9497 560.866 -64.4489C561.221 -64.9117 561.566 -65.3767 561.911 -65.8412C562.494 -66.6262 563.076 -67.4098 563.702 -68.1791C564.706 -69.4017 565.705 -70.6219 566.699 -71.8382C574.41 -81.6451 583.115 -90.9135 592.689 -99.726C595.176 -101.901 597.66 -104.066 600.145 -106.218C602.865 -108.297 605.591 -110.364 608.319 -112.419C608.638 -112.658 608.957 -112.897 609.277 -113.135C609.642 -113.409 610.008 -113.683 610.374 -113.956C610.699 -114.168 611.024 -114.381 611.349 -114.594C611.773 -114.872 612.197 -115.15 612.622 -115.427C614.121 -116.406 615.622 -117.382 617.125 -118.354C617.645 -118.682 618.152 -119.013 618.66 -119.344C619.646 -119.987 620.631 -120.63 621.694 -121.245C623.347 -122.163 625.001 -123.078 626.66 -123.988C639.9 -131.276 655.389 -137.683 674.229 -142.536C693.024 -147.386 715.285 -150.645 740.968 -151.504C766.594 -152.379 795.595 -150.81 826.199 -146.465C856.796 -142.139 888.864 -135.072 920.471 -125.441C952.102 -115.808 983.281 -103.642 1012.79 -89.0875C1042.32 -74.5642 1070.16 -57.4836 1095.47 -38.0352C1120.81 -18.6077 1143.53 3.4058 1162.89 28.0133C1201.51 77.3199 1226.78 137.207 1230.17 210.342C1233.45 283.482 1215.12 369.81 1163.37 472.439C1146.98 504.775 1127.32 538.718 1103.81 574.394C1103.84 574.427 1103.88 574.46 1103.91 574.493C1127.5 538.742 1147.22 504.729 1163.65 472.329C1215.46 369.664 1233.82 283.295 1230.56 210.116C1227.19 136.939 1201.92 77.0031 1163.26 27.6433C1143.88 3.00807 1121.13 -19.0344 1095.75 -38.4938C1070.4 -57.9727 1042.5 -75.0856 1012.89 -89.6466C983.3 -104.237 952.015 -116.444 920.246 -126.113C888.501 -135.783 856.259 -142.886 825.462 -147.241C794.655 -151.613 765.436 -153.196 739.608 -152.323C713.721 -151.466 691.283 -148.194 672.347 -143.331C653.367 -138.464 637.77 -132.041 624.445 -124.741C622.777 -123.829 621.111 -122.913 619.449 -121.993C618.362 -121.367 617.356 -120.714 616.348 -120.061C615.853 -119.739 615.357 -119.418 614.851 -119.099C613.338 -118.124 611.828 -117.147 610.319 -116.167C609.565 -115.677 608.811 -115.187 608.059 -114.695C607.369 -114.183 606.679 -113.67 605.99 -113.157C603.244 -111.1 600.506 -109.031 597.769 -106.949C595.27 -104.796 592.771 -102.631 590.272 -100.454C580.647 -91.6379 571.903 -82.3691 564.162 -72.5669C563.164 -71.3504 562.161 -70.1311 561.154 -68.9095C560.518 -68.1333 559.928 -67.342 559.338 -66.5492C558.998 -66.0929 558.658 -65.636 558.308 -65.1812C556.423 -62.6843 554.516 -60.176 552.582 -57.6582C551.483 -56.194 550.431 -54.7105 549.375 -53.2218C548.608 -52.1402 547.839 -51.0558 547.049 -49.9741C546.355 -48.9914 545.636 -48.0134 544.916 -47.0331C543.74 -45.4331 542.56 -43.8272 541.475 -42.1859C538.7 -38.2223 535.917 -34.2144 533.105 -30.1643C521.034 -12.7826 508.425 5.37595 493.597 24.1415C475.343 47.2817 453.739 71.3603 426.368 96.0855C399.011 120.805 365.91 146.181 325.103 171.814C284.299 197.431 235.751 223.282 177.808 248.739C119.883 274.177 52.5084 299.18 -25.5905 322.743ZM1092.92 590.857C1092.88 590.838 1092.84 590.82 1092.8 590.801C1042.83 664.036 976.701 744.436 889.61 833.028C976.741 744.462 1042.91 664.081 1092.92 590.857Z" fill="white"/>
</g>
</g>
<g style="mix-blend-mode:soft-light" opacity="0.241513">
<g style="mix-blend-mode:soft-light" opacity="0.241513">
<path fill-rule="evenodd" clip-rule="evenodd" d="M-224.378 360.995C-132.968 343.236 -50.5521 320.954 20.909 297.178C92.4586 273.202 153.66 248.097 205.869 222.74C258.092 197.367 301.386 171.779 337.42 146.517C373.456 121.242 402.271 96.3143 425.845 72.0706C449.433 47.8208 467.748 24.2461 483.233 1.58653C498.745 -21.0706 511.402 -42.8285 524.367 -63.4087C525.897 -66.0047 527.698 -68.5149 529.323 -71.0536C531.006 -73.5775 532.571 -76.1143 534.287 -78.5991C536.043 -81.0742 537.78 -83.5376 539.499 -85.9925C540.375 -87.2152 541.179 -88.4536 542.104 -89.6576C543.035 -90.8596 543.962 -92.0592 544.888 -93.2563C552.035 -102.897 560.343 -112.035 569.657 -120.742C572.081 -122.893 574.51 -125.032 576.947 -127.161C579.628 -129.222 582.319 -131.27 585.019 -133.307C585.699 -133.815 586.376 -134.323 587.056 -134.83C587.801 -135.317 588.547 -135.806 589.293 -136.291C590.787 -137.264 592.284 -138.234 593.784 -139.2C595.309 -140.159 596.737 -141.145 598.351 -142.074C600.009 -142.989 601.671 -143.9 603.337 -144.808C616.645 -152.07 632.364 -158.496 651.623 -163.426C670.838 -168.354 693.705 -171.752 720.177 -172.823C746.587 -173.91 776.548 -172.626 808.235 -168.653C839.915 -164.698 873.186 -158.09 906.122 -149.01C939.084 -139.929 971.714 -128.405 1002.84 -114.586C1033.99 -100.792 1063.61 -84.5461 1090.91 -66.0172C1118.24 -47.5064 1143.17 -26.5103 1165 -3.00673C1208.55 44.0838 1239.75 101.385 1250.62 171.528C1261.39 241.672 1252.04 324.619 1211.78 423.374C1171.32 522.157 1100.25 636.682 982.327 770.563C1100.13 636.717 1171.11 522.224 1211.53 423.474C1251.72 324.75 1261.04 241.843 1250.25 171.739C1239.37 101.639 1208.17 44.3818 1164.65 -2.65678C1142.85 -26.1326 1117.95 -47.1014 1090.66 -65.5819C1063.4 -84.0791 1033.83 -100.294 1002.76 -114.05C971.722 -127.835 939.195 -139.32 906.374 -148.365C873.578 -157.409 840.484 -163.981 809.006 -167.91C777.523 -171.857 747.788 -173.128 721.584 -172.04C695.32 -170.97 672.634 -167.584 653.563 -162.671C634.452 -157.755 618.841 -151.347 605.626 -144.098C603.972 -143.192 602.32 -142.282 600.673 -141.369C599.07 -140.443 597.652 -139.458 596.138 -138.5C594.647 -137.535 593.16 -136.566 591.676 -135.595C590.934 -135.11 590.194 -134.623 589.453 -134.136C588.778 -133.63 588.103 -133.124 587.429 -132.615C584.746 -130.58 582.073 -128.534 579.408 -126.476C576.987 -124.349 574.573 -122.21 572.163 -120.061C562.906 -111.359 554.645 -102.223 547.532 -92.5804C546.61 -91.3838 545.687 -90.1821 544.76 -88.9804C543.839 -87.7766 543.04 -86.5376 542.169 -85.3141C540.457 -82.8577 538.725 -80.3938 536.979 -77.9169C535.27 -75.4302 533.711 -72.8898 532.034 -70.3648C530.412 -67.8247 528.621 -65.3126 527.094 -62.714C514.166 -42.1147 501.521 -20.3237 485.991 2.37839C470.488 25.0819 452.123 48.7129 428.454 73.0269C404.8 97.3363 375.868 122.337 339.676 147.694C303.485 173.037 259.993 198.713 207.521 224.177C155.054 249.629 93.543 274.83 21.6285 298.895C-50.2748 322.784 -133.218 345.185 -225.475 363.06" fill="white"/>
</g>
</g>
<g style="mix-blend-mode:soft-light" opacity="0.241513">
<g style="mix-blend-mode:soft-light" opacity="0.241513">
<path fill-rule="evenodd" clip-rule="evenodd" d="M-298.013 362.63C-252.318 356.301 -207.421 348.006 -164.877 338.665C-79.5919 319.914 -3.73224 297.098 61.5059 273.094C126.772 248.898 182.095 223.843 228.89 198.691C275.693 173.525 314.036 148.295 345.602 123.467C377.164 98.6264 401.996 74.2038 422.079 50.479C442.176 26.7487 457.497 3.70737 470.5 -18.4505C483.53 -40.6064 494.216 -61.8973 505.739 -82.0776C507.087 -84.6218 508.72 -87.0877 510.182 -89.5773C511.701 -92.055 513.108 -94.5427 514.676 -96.983C516.288 -99.4136 517.884 -101.835 519.473 -104.246C520.284 -105.447 521.021 -106.663 521.886 -107.847C522.756 -109.029 523.628 -110.209 524.497 -111.386C531.182 -120.863 539.175 -129.87 548.296 -138.466C550.674 -140.591 553.064 -142.705 555.466 -144.808C558.119 -146.847 560.789 -148.875 563.472 -150.891C564.147 -151.394 564.821 -151.896 565.498 -152.398C566.24 -152.882 566.986 -153.365 567.732 -153.847C569.223 -154.812 570.72 -155.774 572.221 -156.733C573.745 -157.684 575.175 -158.661 576.794 -159.583C578.459 -160.493 580.13 -161.399 581.806 -162.302C595.186 -169.523 611.114 -175.944 630.708 -180.93C650.258 -185.913 673.592 -189.424 700.649 -190.69C727.646 -191.973 758.308 -190.967 790.814 -187.37C823.313 -183.79 857.521 -177.651 891.524 -169.132C925.555 -160.614 959.392 -149.746 991.892 -136.669C1024.42 -123.62 1055.59 -108.211 1084.64 -90.6072C1113.72 -73.0206 1140.61 -53.0424 1164.65 -30.6493C1212.62 14.2196 1249.22 68.931 1266.88 136.078C1284.47 203.224 1283.31 282.782 1253.46 377.687C1223.43 472.61 1164.95 582.837 1063.72 711.656C1164.84 582.867 1223.25 472.67 1253.22 377.778C1283.02 282.904 1284.14 203.383 1266.54 136.274C1248.85 69.1652 1212.26 14.5003 1164.32 -30.3186C1140.31 -52.6871 1113.44 -72.6373 1084.41 -90.1922C1055.39 -107.768 1024.27 -123.144 991.834 -136.159C959.416 -149.2 925.683 -160.033 891.794 -168.515C857.929 -176.998 823.902 -183.101 791.608 -186.659C759.308 -190.231 728.876 -191.223 702.088 -189.942C675.242 -188.676 652.096 -185.178 632.695 -180.213C613.251 -175.243 597.438 -168.84 584.154 -161.633C582.49 -160.732 580.833 -159.828 579.178 -158.92C577.569 -158 576.151 -157.024 574.637 -156.074C573.146 -155.117 571.661 -154.156 570.179 -153.194C569.439 -152.712 568.7 -152.229 567.961 -151.747C567.29 -151.245 566.619 -150.744 565.949 -150.241C563.284 -148.227 560.634 -146.203 557.998 -144.166C555.612 -142.065 553.239 -139.953 550.876 -137.83C541.818 -129.24 533.878 -120.238 527.231 -110.759C526.368 -109.582 525.503 -108.403 524.637 -107.22C523.776 -106.037 523.045 -104.82 522.238 -103.618C520.659 -101.206 519.07 -98.7844 517.468 -96.353C515.908 -93.913 514.51 -91.4207 512.997 -88.9431C511.542 -86.4509 509.915 -83.9843 508.575 -81.4393C497.106 -61.2421 486.442 -39.9233 473.41 -17.7278C460.406 4.47048 445.053 27.5638 424.897 51.3535C404.753 75.14 379.826 99.6318 348.132 124.551C316.436 149.458 277.923 174.773 230.902 200.029C183.884 225.276 128.285 250.43 62.6923 274.717C-2.94079 298.837 -79.2787 321.777 -165.347 340.665C-208.29 350.074 -253.664 358.441 -300.06 364.84" fill="white"/>
</g>
</g>
<g style="mix-blend-mode:soft-light" opacity="0.241513">
<g style="mix-blend-mode:soft-light" opacity="0.241513">
<path fill-rule="evenodd" clip-rule="evenodd" d="M-300.351 351.238C-311.165 352.379 -321.803 353.26 -332.289 353.96L-302.931 353.529C-280.862 351.259 -258.607 348.247 -236.687 344.749C-192.79 337.734 -150.304 328.861 -110.335 319.054C-30.2438 299.365 39.7896 276.045 99.4738 251.801C159.069 227.398 209.085 202.357 250.981 177.352C292.877 152.336 326.731 127.389 354.243 102.901C381.751 78.4035 402.973 54.3878 419.905 31.0775C436.85 7.7639 449.479 -14.849 460.275 -36.6088C465.103 -46.3159 469.561 -55.8562 473.932 -65.2104C479.358 -76.8215 484.65 -88.1462 490.35 -99.1484C491.129 -100.785 492.036 -102.391 492.941 -103.992C493.419 -104.838 493.897 -105.684 494.354 -106.532C494.862 -107.428 495.355 -108.326 495.847 -109.223C496.694 -110.766 497.538 -112.306 498.455 -113.827C499.822 -116.03 501.187 -118.223 502.547 -120.41L502.905 -120.986C503.166 -121.396 503.419 -121.807 503.672 -122.218C504.15 -122.996 504.627 -123.772 505.161 -124.536C505.934 -125.636 506.71 -126.733 507.486 -127.828L507.627 -128.028C513.935 -137.376 521.685 -146.276 530.664 -154.781C533.011 -156.884 535.372 -158.977 537.752 -161.058C540.389 -163.079 543.043 -165.09 545.72 -167.088C545.97 -167.273 546.221 -167.459 546.471 -167.644C546.894 -167.956 547.317 -168.269 547.741 -168.582C548.484 -169.062 549.229 -169.541 549.975 -170.021C551.467 -170.979 552.966 -171.933 554.469 -172.885C554.969 -173.194 555.459 -173.506 555.948 -173.817C556.955 -174.458 557.961 -175.099 559.056 -175.715C560.728 -176.619 562.409 -177.521 564.095 -178.419C577.551 -185.6 593.657 -192.009 613.504 -197.031C633.311 -202.049 656.97 -205.646 684.422 -207.08C711.817 -208.528 742.945 -207.773 776.032 -204.517C809.112 -201.278 844.016 -195.573 878.868 -187.572C913.746 -179.572 948.584 -169.304 982.259 -156.909C1015.96 -144.538 1048.48 -129.895 1079.1 -113.134C1109.73 -96.3886 1138.38 -77.3401 1164.42 -55.955C1216.4 -13.1078 1257.94 39.2468 1281.85 103.674C1296.9 144.332 1304.99 189.791 1303.78 240.779C1303.87 240.789 1303.96 240.8 1304.05 240.812C1305.3 189.744 1297.23 144.214 1282.18 103.493C1258.28 39.0273 1216.74 -13.3689 1164.73 -56.267C1138.68 -77.6783 1110 -96.7522 1079.32 -113.528C1048.67 -130.318 1016.09 -144.994 982.309 -157.398C948.556 -169.827 913.611 -180.131 878.592 -188.166C843.597 -196.202 808.515 -201.941 775.227 -205.204C741.932 -208.483 710.57 -209.25 682.963 -207.8C655.295 -206.366 631.445 -202.753 611.485 -197.718C591.483 -192.678 575.258 -186.251 561.698 -179.054C560 -178.154 558.309 -177.251 556.624 -176.344C555.524 -175.728 554.514 -175.089 553.503 -174.449C553.006 -174.134 552.51 -173.82 552.003 -173.509C550.486 -172.555 548.978 -171.599 547.474 -170.639L547.22 -170.477C546.553 -170.051 545.887 -169.625 545.224 -169.198C544.543 -168.7 543.865 -168.201 543.187 -167.702C540.492 -165.7 537.816 -163.688 535.162 -161.664C532.764 -159.58 530.385 -157.484 528.02 -155.379C518.976 -146.866 511.167 -137.96 504.812 -128.612C504.094 -127.605 503.378 -126.596 502.66 -125.585L502.328 -125.119C501.791 -124.354 501.31 -123.577 500.828 -122.799C500.574 -122.389 500.32 -121.978 500.057 -121.569C498.568 -119.193 497.074 -116.807 495.575 -114.412C494.653 -112.889 493.801 -111.348 492.947 -109.804C492.452 -108.909 491.956 -108.013 491.446 -107.119C490.987 -106.275 490.508 -105.433 490.028 -104.589C489.116 -102.986 488.202 -101.378 487.416 -99.7389C481.612 -88.608 476.231 -77.1502 470.714 -65.403C466.391 -56.1971 461.985 -46.8136 457.225 -37.2704C446.418 -15.5477 433.8 7.02045 416.897 30.2776C400.009 53.5302 378.86 77.4804 351.459 101.903C324.055 126.315 290.344 151.182 248.636 176.108C206.936 201.022 157.157 225.964 97.8531 250.272C38.5253 274.396 -31.0814 297.589 -110.45 317.126C-150.046 326.856 -192.096 335.651 -235.331 342.581C-256.918 346.037 -278.78 349.006 -300.351 351.238ZM1302.11 272.68C1302.03 272.681 1301.95 272.682 1301.87 272.681C1299.93 292.955 1296.58 314.051 1291.68 336.009C1271.17 427.445 1224.07 533.81 1137.71 658.133C1224.18 533.784 1271.34 427.394 1291.9 335.928C1296.8 314 1300.16 292.93 1302.11 272.68Z" fill="white"/>
</g>
</g>
<g style="mix-blend-mode:soft-light" opacity="0.241513">
<g style="mix-blend-mode:soft-light" opacity="0.241513">
<path fill-rule="evenodd" clip-rule="evenodd" d="M-303.365 334.777C-293.812 334.486 -283.864 333.884 -273.737 333.026C-263.609 332.166 -253.376 331.131 -243.038 329.842C-222.403 327.312 -201.656 324.069 -181.284 320.364C-140.482 312.937 -101.221 303.755 -64.4811 293.73C9.14389 273.604 72.7484 250.202 126.441 226.088C180.06 201.801 224.58 177.07 261.475 152.471C298.378 127.861 327.744 103.412 351.277 79.4566C374.806 55.4921 392.558 32.0343 406.54 9.26698C420.535 -13.505 430.736 -35.5974 439.635 -56.893C448.56 -78.1854 456.162 -98.6973 465.622 -118.24C466.704 -120.7 468.107 -123.093 469.341 -125.507C470.637 -127.91 471.826 -130.322 473.204 -132.692C474.625 -135.054 476.046 -137.406 477.47 -139.75C478.199 -140.919 478.856 -142.1 479.649 -143.252C480.45 -144.403 481.252 -145.554 482.056 -146.701C488.21 -155.928 495.952 -164.739 505.042 -173.175C507.419 -175.262 509.816 -177.34 512.238 -179.406C514.922 -181.415 517.631 -183.414 520.366 -185.401C521.053 -185.898 521.742 -186.392 522.432 -186.887C523.192 -187.366 523.954 -187.844 524.719 -188.321C526.246 -189.275 527.781 -190.227 529.324 -191.175C530.89 -192.117 532.361 -193.082 534.029 -193.997C535.746 -194.9 537.469 -195.801 539.203 -196.697C553.033 -203.87 569.637 -210.3 590.105 -215.384C610.531 -220.463 634.933 -224.161 663.214 -225.745C691.436 -227.343 723.471 -226.785 757.493 -223.792C791.515 -220.816 827.383 -215.441 863.258 -207.851C899.159 -200.259 935.075 -190.48 969.936 -178.656C1004.83 -166.855 1038.65 -152.871 1070.72 -136.851C1102.82 -120.847 1133.1 -102.627 1160.96 -82.1567C1216.59 -41.1424 1262.6 9.03101 1292.14 70.9011C1321.64 132.772 1334.79 206.332 1322.91 294.449C1310.91 382.564 1273.97 485.243 1200.67 605.316C1273.89 485.265 1310.75 382.615 1322.7 294.521C1334.54 206.43 1321.34 132.903 1291.83 71.0674C1262.26 9.2348 1216.25 -40.8969 1160.65 -81.8613C1132.81 -102.307 1102.56 -120.5 1070.5 -136.476C1038.47 -152.467 1004.69 -166.42 969.885 -178.188C935.1 -189.978 899.289 -199.722 863.532 -207.279C827.797 -214.835 792.108 -220.177 758.298 -223.13C724.484 -226.1 692.685 -226.645 664.68 -225.051C636.618 -223.471 612.41 -219.786 592.143 -214.724C571.834 -209.659 555.355 -203.248 541.631 -196.092C539.913 -195.197 538.2 -194.3 536.497 -193.398C534.84 -192.485 533.383 -191.521 531.827 -190.582C530.297 -189.636 528.774 -188.686 527.258 -187.734C526.5 -187.257 525.744 -186.78 524.989 -186.302C524.304 -185.809 523.621 -185.314 522.939 -184.819C520.226 -182.835 517.537 -180.84 514.873 -178.834C512.471 -176.77 510.091 -174.696 507.734 -172.61C498.716 -164.184 491.037 -155.382 484.934 -146.155C484.136 -145.009 483.341 -143.859 482.547 -142.708C481.761 -141.556 481.111 -140.376 480.386 -139.207C478.975 -136.862 477.565 -134.511 476.157 -132.148C474.789 -129.779 473.611 -127.366 472.326 -124.962C471.102 -122.548 469.709 -120.155 468.637 -117.694C459.252 -98.1435 451.704 -77.6125 442.807 -56.2885C433.935 -34.9627 423.739 -12.8267 409.719 9.99622C395.711 32.8166 377.907 56.3352 354.293 80.3709C330.675 104.398 301.188 128.925 264.126 153.621C227.064 178.311 182.336 203.136 128.46 227.52C74.4525 251.754 10.467 275.29 -63.8205 295.576C-100.901 305.681 -140.565 314.951 -181.989 322.475C-202.677 326.229 -223.793 329.519 -244.904 332.098C-255.477 333.409 -265.982 334.47 -276.408 335.346C-286.834 336.221 -297.123 336.839 -307.047 337.132" fill="white"/>
</g>
</g>
<g style="mix-blend-mode:soft-light" opacity="0.241513">
<g style="mix-blend-mode:soft-light" opacity="0.241513">
<path fill-rule="evenodd" clip-rule="evenodd" d="M-333.185 305.057C-329.715 307.273 -325.461 309.291 -320.246 310.993C-315.017 312.69 -308.816 314.063 -301.749 315.048C-287.629 317.038 -270.015 317.381 -251.294 316.476C-241.937 316.036 -232.273 315.287 -222.498 314.288C-212.723 313.289 -202.889 312.118 -193.01 310.7C-173.284 307.91 -153.618 304.437 -134.409 300.525C-95.9456 292.686 -59.3454 283.195 -25.3209 272.951C42.8444 252.387 100.792 228.889 149.191 204.873C197.47 180.693 237.073 156.23 269.497 131.986C301.927 107.731 327.275 83.7198 347.249 60.2258C367.22 36.7231 381.886 13.7531 393.268 -8.5499C404.662 -30.8551 412.749 -52.5004 420.037 -73.4019C427.351 -94.2997 433.846 -114.468 442.697 -133.737C443.704 -136.161 445.04 -138.523 446.214 -140.905C447.451 -143.276 448.586 -145.657 449.918 -147.996C451.295 -150.329 452.678 -152.654 454.072 -154.97C454.786 -156.124 455.429 -157.291 456.212 -158.43C457.002 -159.57 457.796 -160.706 458.592 -161.841C464.686 -170.966 472.494 -179.699 481.756 -188.071C484.177 -190.145 486.625 -192.207 489.101 -194.26C491.845 -196.257 494.617 -198.245 497.422 -200.222C498.128 -200.715 498.833 -201.207 499.543 -201.699C500.322 -202.175 501.102 -202.652 501.885 -203.127C503.452 -204.078 505.028 -205.026 506.612 -205.97C508.221 -206.908 509.733 -207.868 511.447 -208.78C513.208 -209.682 514.981 -210.58 516.76 -211.474C530.973 -218.63 548.056 -225.068 569.075 -230.193C590.051 -235.314 615.074 -239.088 644.008 -240.801C672.884 -242.529 705.609 -242.156 740.349 -239.418C775.089 -236.696 811.709 -231.645 848.406 -224.455C885.126 -217.265 921.936 -207.961 957.813 -196.691C993.715 -185.443 1028.67 -172.095 1062.03 -156.787C1095.42 -141.493 1127.15 -124.072 1156.65 -104.479C1215.58 -65.2212 1265.66 -17.1365 1300.37 42.2875C1335.03 101.715 1354.42 172.482 1350.27 257.445C1346.04 342.404 1318.33 441.58 1256.7 557.673C1318.24 441.598 1345.89 342.443 1350.07 257.508C1354.17 172.568 1334.75 101.833 1300.06 42.4405C1265.33 -16.9486 1215.25 -64.9917 1156.35 -104.2C1126.85 -123.769 1095.15 -141.165 1061.8 -156.43C1028.48 -171.709 993.573 -185.027 957.751 -196.242C921.954 -207.478 885.247 -216.747 848.667 -223.903C812.113 -231.059 775.669 -236.077 741.141 -238.777C706.611 -241.492 674.126 -241.855 645.47 -240.13C616.758 -238.42 591.936 -234.66 571.122 -229.557C550.268 -224.45 533.312 -218.034 519.213 -210.895C517.446 -210.002 515.689 -209.106 513.94 -208.208C512.237 -207.298 510.739 -206.339 509.143 -205.403C507.571 -204.461 506.009 -203.515 504.453 -202.567C503.676 -202.093 502.902 -201.618 502.128 -201.142C501.425 -200.651 500.723 -200.16 500.026 -199.667C497.243 -197.694 494.492 -195.711 491.771 -193.715C489.314 -191.667 486.886 -189.607 484.486 -187.537C475.303 -179.175 467.56 -170.451 461.524 -161.33C460.735 -160.196 459.949 -159.06 459.166 -157.922C458.39 -156.782 457.755 -155.616 457.047 -154.462C455.667 -152.146 454.296 -149.823 452.932 -147.49C451.612 -145.15 450.491 -142.769 449.266 -140.399C448.103 -138.018 446.778 -135.655 445.784 -133.23C437.021 -113.958 430.588 -93.7748 423.319 -72.8507C416.072 -51.9245 408.003 -30.2406 396.604 -7.88754C385.214 14.4618 370.515 37.4886 350.478 61.0583C330.44 84.6193 304.995 108.707 272.431 133.045C239.866 157.377 200.085 181.931 151.58 206.209C102.902 230.345 44.6203 253.976 -24.1529 274.708C-58.4864 285.039 -95.4596 294.62 -134.506 302.567C-154.007 306.532 -174.022 310.062 -194.203 312.906C-204.304 314.352 -214.401 315.552 -224.464 316.574C-234.526 317.594 -244.517 318.366 -254.239 318.814C-273.679 319.74 -292.212 319.375 -307.124 317.247C-314.585 316.195 -321.129 314.728 -326.626 312.929" fill="white"/>
</g>
</g>
<g style="mix-blend-mode:soft-light" opacity="0.241513">
<g style="mix-blend-mode:soft-light" opacity="0.241513">
<path fill-rule="evenodd" clip-rule="evenodd" d="M-321.525 254.617C-319.958 254.201 -318.394 253.783 -316.838 253.364C-316.603 253.876 -316.376 254.39 -316.155 254.904C-313.797 260.396 -311.084 265.854 -307.152 271.087C-305.144 273.695 -302.762 276.228 -299.997 278.672C-297.148 281.096 -293.745 283.39 -289.692 285.494C-285.631 287.594 -280.851 289.488 -275.21 291.058C-269.553 292.622 -263.033 293.858 -255.756 294.699C-241.216 296.405 -223.678 296.454 -205.373 295.277C-196.221 294.703 -186.843 293.821 -177.42 292.7C-167.996 291.577 -158.553 290.287 -149.128 288.76C-130.296 285.75 -111.681 282.083 -93.6014 278.005C-57.4048 269.833 -23.3643 260.115 8.05954 249.725C71.002 228.868 123.574 205.401 166.974 181.578C210.213 157.6 245.195 133.481 273.443 109.644C301.696 85.7981 323.316 62.262 340.027 39.2527C356.733 16.238 368.604 -6.23481 377.677 -28.0689C386.761 -49.9051 393.028 -71.1125 398.998 -91.6304C404.991 -112.145 410.67 -131.989 419.196 -151.001C420.158 -153.392 421.466 -155.726 422.612 -158.077C423.822 -160.419 424.938 -162.769 426.26 -165.082C427.627 -167.388 429.009 -169.686 430.405 -171.976C431.123 -173.119 431.767 -174.272 432.555 -175.399C433.351 -176.527 434.154 -177.652 434.96 -178.775C441.124 -187.806 449.128 -196.467 458.681 -204.782C461.176 -206.841 463.704 -208.89 466.266 -210.93C469.096 -212.918 471.962 -214.896 474.866 -216.861C475.595 -217.352 476.327 -217.841 477.06 -218.332C477.864 -218.806 478.672 -219.28 479.481 -219.754C481.099 -220.701 482.73 -221.644 484.368 -222.585C486.033 -223.521 487.598 -224.477 489.372 -225.386C491.193 -226.286 493.023 -227.181 494.864 -228.074C509.56 -235.213 527.211 -241.654 548.849 -246.812C570.446 -251.966 596.132 -255.807 625.742 -257.631C655.296 -259.471 688.697 -259.258 724.121 -256.748C759.544 -254.253 796.858 -249.497 834.292 -242.675C871.752 -235.852 909.355 -226.992 946.125 -216.242C982.921 -205.511 1018.87 -192.762 1053.38 -178.131C1087.91 -163.513 1120.92 -146.85 1151.9 -128.099C1213.77 -90.5246 1267.52 -44.4565 1306.91 12.5952C1346.25 69.6514 1371.32 137.698 1374.2 219.586C1377.02 301.469 1357.67 397.227 1306.5 509.478C1357.59 397.242 1376.87 301.498 1374.01 219.641C1371.08 137.774 1345.97 69.7561 1306.61 12.734C1267.2 -44.2833 1213.43 -90.3112 1151.59 -127.837C1120.62 -146.565 1087.63 -163.202 1053.13 -177.791C1018.67 -192.393 982.766 -205.112 946.045 -215.81C909.352 -226.528 871.851 -235.354 834.531 -242.143C797.236 -248.931 760.103 -253.655 724.892 -256.127C689.678 -258.615 656.518 -258.815 627.189 -256.979C597.803 -255.157 572.319 -251.334 550.892 -246.197C529.423 -241.058 511.907 -234.638 497.326 -227.518C495.499 -226.627 493.683 -225.734 491.876 -224.837C490.116 -223.93 488.563 -222.976 486.912 -222.043C485.286 -221.104 483.671 -220.162 482.064 -219.218C481.261 -218.746 480.461 -218.272 479.662 -217.798C478.934 -217.311 478.209 -216.82 477.486 -216.331C474.607 -214.369 471.763 -212.396 468.956 -210.411C466.415 -208.375 463.909 -206.33 461.436 -204.273C451.964 -195.971 444.033 -187.32 437.932 -178.295C437.134 -177.173 436.34 -176.049 435.552 -174.922C434.773 -173.794 434.134 -172.643 433.425 -171.501C432.043 -169.211 430.675 -166.914 429.323 -164.61C428.014 -162.297 426.914 -159.948 425.716 -157.606C424.582 -155.255 423.288 -152.924 422.338 -150.531C413.915 -131.519 408.312 -111.665 402.375 -91.128C396.462 -70.5885 390.228 -49.3489 381.153 -27.4704C372.09 -5.59427 360.203 16.9304 343.451 40.0088C326.694 63.0782 305.001 86.6861 276.636 110.612C248.274 134.532 213.137 158.741 169.705 182.815C126.063 206.755 73.1903 230.36 9.7002 251.388C-22.0054 261.866 -56.389 271.681 -93.1279 279.967C-111.48 284.102 -130.422 287.831 -149.688 290.903C-159.322 292.461 -169.017 293.784 -178.717 294.934C-188.419 296.084 -198.11 296.992 -207.622 297.582C-226.63 298.793 -245.077 298.737 -260.437 296.912C-268.117 296.011 -275.008 294.693 -280.956 293.032C-286.892 291.366 -291.888 289.367 -296.112 287.166C-300.325 284.962 -303.836 282.571 -306.764 280.061C-309.604 277.534 -312.034 274.923 -314.077 272.249C-318.075 266.884 -320.808 261.329 -323.185 255.758C-321.395 255.857 -319.603 255.954 -317.819 256.05" fill="white"/>
</g>
</g>
<g style="mix-blend-mode:soft-light" opacity="0.241513">
<g style="mix-blend-mode:soft-light" opacity="0.241513">
<path fill-rule="evenodd" clip-rule="evenodd" d="M-293.314 236.552C-291.879 236.127 -290.445 235.698 -289.02 235.272C-288.648 235.77 -288.285 236.27 -287.928 236.769C-284.104 242.106 -279.925 247.399 -274.59 252.449C-271.881 254.965 -268.824 257.402 -265.407 259.744C-261.913 262.067 -257.902 264.254 -253.302 266.242C-248.694 268.23 -243.43 270.002 -237.401 271.447C-231.358 272.886 -224.549 273.991 -217.098 274.702C-202.203 276.144 -184.787 275.93 -166.922 274.516C-157.986 273.823 -148.908 272.83 -139.838 271.602C-130.774 270.375 -121.722 268.983 -112.753 267.366C-94.811 264.172 -77.235 260.349 -60.2666 256.141C-26.2948 247.706 5.25423 237.825 34.1612 227.342C92.0477 206.301 139.467 182.927 178.102 159.335C216.536 135.596 247.144 111.827 271.465 88.3875C295.79 64.9398 313.937 41.8443 327.644 19.2783C341.347 -3.29574 350.687 -25.3295 357.721 -46.7627C364.768 -68.1972 369.486 -89.0398 374.41 -109.255C379.354 -129.465 384.488 -149.063 392.942 -167.894C393.895 -170.261 395.202 -172.575 396.356 -174.905C397.574 -177.227 398.698 -179.556 400.042 -181.85C401.43 -184.138 402.839 -186.418 404.27 -188.691C405.004 -189.825 405.665 -190.969 406.476 -192.089C407.294 -193.208 408.117 -194.326 408.948 -195.442C415.304 -204.411 423.613 -213.028 433.564 -221.31C436.158 -223.362 438.792 -225.404 441.465 -227.436C444.406 -229.418 447.39 -231.39 450.414 -233.35C451.174 -233.84 451.936 -234.329 452.701 -234.817C453.537 -235.291 454.375 -235.764 455.217 -236.237C456.9 -237.182 458.593 -238.124 460.299 -239.063C462.028 -239.997 463.661 -240.949 465.503 -241.859C467.392 -242.758 469.292 -243.653 471.203 -244.545C486.463 -251.678 504.749 -258.125 527.049 -263.309C549.307 -268.489 575.683 -272.372 605.959 -274.274C636.177 -276.191 670.223 -276.091 706.264 -273.747C742.309 -271.418 780.217 -266.883 818.282 -260.347C856.377 -253.81 894.643 -245.3 932.167 -234.972C969.722 -224.661 1006.51 -212.409 1042 -198.346C1077.51 -184.295 1111.64 -168.277 1143.9 -150.246C1208.35 -114.114 1265.37 -69.8004 1308.99 -14.8344C1352.56 40.1371 1382.81 105.77 1392.13 184.926C1401.4 264.071 1389.73 356.787 1348.08 465.638C1389.66 356.801 1401.26 264.094 1391.95 184.971C1382.57 105.837 1352.29 40.229 1308.69 -14.7077C1265.05 -69.6406 1208 -113.917 1143.58 -149.999C1111.32 -168.007 1077.22 -183.998 1041.74 -198.022C1006.28 -212.057 969.541 -224.279 932.062 -234.556C894.611 -244.852 856.445 -253.327 818.49 -259.83C780.563 -266.332 742.831 -270.835 707.002 -273.142C671.172 -275.463 637.37 -275.551 607.376 -273.637C577.328 -271.738 551.16 -267.87 529.075 -262.709C506.947 -257.544 488.8 -251.118 473.661 -244.004C471.764 -243.115 469.88 -242.223 468.006 -241.326C466.179 -240.42 464.559 -239.468 462.842 -238.538C461.15 -237.6 459.471 -236.66 457.801 -235.718C456.967 -235.246 456.134 -234.775 455.305 -234.301C454.548 -233.814 453.791 -233.326 453.037 -232.837C450.038 -230.881 447.079 -228.914 444.162 -226.935C441.512 -224.907 438.902 -222.869 436.329 -220.82C426.465 -212.553 418.234 -203.947 411.946 -194.985C411.124 -193.87 410.309 -192.755 409.5 -191.636C408.698 -190.516 408.044 -189.373 407.318 -188.24C405.903 -185.969 404.51 -183.689 403.138 -181.403C401.81 -179.111 400.699 -176.782 399.497 -174.461C398.359 -172.131 397.065 -169.819 396.127 -167.452C387.785 -148.625 382.741 -129.02 377.865 -108.794C373.011 -88.5617 368.339 -67.6919 361.319 -46.2188C354.31 -24.7494 344.968 -2.6668 331.242 19.9634C317.507 42.5873 299.308 65.7488 274.895 89.2725C250.483 112.791 219.747 136.648 181.146 160.48C142.304 184.188 94.6202 207.696 36.2392 228.913C7.08 239.485 -24.7844 249.468 -59.2586 258.022C-76.4801 262.29 -94.3647 266.179 -112.715 269.441C-121.887 271.093 -131.174 272.518 -140.505 273.778C-149.839 275.037 -159.223 276.062 -168.509 276.778C-187.055 278.236 -205.374 278.461 -221.111 276.914C-228.977 276.153 -236.175 274.973 -242.532 273.445C-248.88 271.911 -254.389 270.038 -259.184 267.957C-263.97 265.87 -268.117 263.591 -271.71 261.186C-275.227 258.765 -278.352 256.25 -281.115 253.669C-286.554 248.49 -290.782 243.101 -294.645 237.686C-292.847 237.76 -291.052 237.836 -289.261 237.908" fill="white"/>
</g>
</g>
<g style="mix-blend-mode:soft-light" opacity="0.241513">
<g style="mix-blend-mode:soft-light" opacity="0.241513">
<path fill-rule="evenodd" clip-rule="evenodd" d="M-266.353 219.197C-265.041 218.764 -263.735 218.333 -262.436 217.899C-261.939 218.381 -261.444 218.864 -260.958 219.348C-255.759 224.512 -250.203 229.621 -243.555 234.47C-240.192 236.887 -236.502 239.22 -232.476 241.451C-228.379 243.663 -223.805 245.735 -218.698 247.605C-213.582 249.471 -207.874 251.121 -201.485 252.438C-195.09 253.749 -188.019 254.723 -180.42 255.307C-165.217 256.494 -147.944 256.03 -130.525 254.403C-121.806 253.601 -113.022 252.509 -104.304 251.189C-95.5877 249.871 -86.9242 248.393 -78.3937 246.699C-61.3191 243.35 -44.7417 239.402 -28.8415 235.093C2.98955 226.457 32.1629 216.47 58.6768 205.949C111.754 184.833 154.315 161.641 188.476 138.349C222.4 114.917 248.931 91.5468 269.618 68.5398C290.311 45.5259 305.276 22.8944 316.274 0.781281C327.267 -21.3391 334.374 -42.9341 339.667 -63.9727C344.97 -85.0135 348.444 -105.506 352.614 -125.433C356.804 -145.356 361.683 -164.729 370.346 -183.396C371.323 -185.743 372.666 -188.037 373.858 -190.349C375.117 -192.652 376.289 -194.962 377.685 -197.24C379.128 -199.511 380.597 -201.777 382.097 -204.034C382.864 -205.16 383.563 -206.295 384.409 -207.41C385.264 -208.522 386.127 -209.633 386.998 -210.742C393.677 -219.655 402.415 -228.235 412.883 -236.487C415.607 -238.532 418.374 -240.567 421.188 -242.592C424.269 -244.569 427.396 -246.537 430.57 -248.492C431.367 -248.98 432.167 -249.468 432.97 -249.954C433.845 -250.427 434.72 -250.9 435.6 -251.372C437.36 -252.315 439.131 -253.256 440.915 -254.193C442.725 -255.124 444.438 -256.076 446.361 -256.984C448.33 -257.881 450.311 -258.775 452.305 -259.666C468.226 -266.791 487.235 -273.241 510.263 -278.439C533.25 -283.635 560.359 -287.547 591.321 -289.508C622.229 -291.484 656.911 -291.473 693.538 -289.269C730.169 -287.081 768.62 -282.737 807.24 -276.458C845.887 -270.177 884.72 -261.99 922.893 -252.05C961.097 -242.129 998.602 -230.338 1034.93 -216.811C1071.3 -203.292 1106.38 -187.887 1139.78 -170.543C1206.47 -135.789 1266.4 -93.1627 1313.81 -40.2175C1361.18 12.7341 1396.11 76.0152 1411.27 152.5C1426.38 228.973 1421.68 318.708 1388.59 424.249C1421.61 318.713 1426.25 228.992 1411.09 152.537C1395.88 76.0712 1360.9 12.8125 1313.5 -40.1053C1266.06 -93.0175 1206.12 -135.605 1139.44 -170.312C1106.05 -187.632 1070.98 -203.012 1034.65 -216.501C998.349 -230.002 960.885 -241.761 922.755 -251.649C884.654 -261.556 845.917 -269.708 807.405 -275.956C768.925 -282.201 730.648 -286.513 694.23 -288.678C657.815 -290.859 623.376 -290.858 592.699 -288.884C561.967 -286.925 535.069 -283.029 512.258 -277.851C489.407 -272.672 470.543 -266.244 454.748 -259.14C452.768 -258.251 450.802 -257.359 448.849 -256.464C446.941 -255.559 445.241 -254.61 443.447 -253.681C441.676 -252.746 439.919 -251.808 438.174 -250.866C437.301 -250.396 436.432 -249.925 435.565 -249.453C434.769 -248.967 433.975 -248.481 433.184 -247.993C430.036 -246.042 426.934 -244.08 423.88 -242.107C421.091 -240.085 418.347 -238.054 415.647 -236.013C405.27 -227.776 396.615 -219.21 390.009 -210.305C389.147 -209.197 388.294 -208.087 387.448 -206.976C386.61 -205.863 385.921 -204.729 385.163 -203.603C383.681 -201.348 382.229 -199.085 380.803 -196.815C379.423 -194.539 378.266 -192.23 377.026 -189.928C375.85 -187.618 374.52 -185.325 373.56 -182.978C365.02 -164.32 360.243 -144.944 356.134 -125.009C352.046 -105.068 348.635 -84.5536 343.371 -63.4809C338.119 -42.4094 331.03 -20.7722 320.028 1.40076C309.023 23.5667 294.022 46.2597 273.263 69.3444C252.505 92.4269 225.875 115.88 191.809 139.402C157.472 162.809 114.684 186.131 61.1614 207.425C34.418 218.036 4.9607 228.124 -27.3366 236.886C-43.4747 241.258 -60.335 245.275 -77.7965 248.696C-86.5191 250.427 -95.4071 251.942 -104.378 253.297C-113.352 254.652 -122.43 255.78 -131.486 256.609C-149.569 258.292 -167.733 258.778 -183.8 257.506C-191.827 256.881 -199.3 255.837 -206.032 254.445C-212.757 253.046 -218.736 251.304 -224.064 249.347C-229.384 247.386 -234.117 245.225 -238.335 242.933C-242.481 240.623 -246.261 238.217 -249.694 235.738C-256.483 230.764 -262.109 225.559 -267.371 220.319C-265.571 220.371 -263.773 220.423 -261.979 220.474" fill="white"/>
</g>
</g>
</g>
<g opacity="0.01">
<path style="mix-blend-mode:multiply" opacity="0.01" d="M1394.42 1177.14C1576.67 1177.14 1724.42 1029.4 1724.42 847.143C1724.42 664.889 1576.67 517.143 1394.42 517.143C1212.17 517.143 1064.42 664.889 1064.42 847.143C1064.42 1029.4 1212.17 1177.14 1394.42 1177.14Z" fill="url(#paint2_linear_1698_1580)"/>
</g>
<g style="mix-blend-mode:screen" opacity="0.129255">
<path style="mix-blend-mode:screen" opacity="0.129255" d="M9.92285 756.143C69.2935 756.143 117.423 708.014 117.423 648.643C117.423 589.272 69.2935 541.143 9.92285 541.143C-49.4478 541.143 -97.5771 589.272 -97.5771 648.643C-97.5771 708.014 -49.4478 756.143 9.92285 756.143Z" fill="url(#paint3_linear_1698_1580)"/>
</g>
<g style="mix-blend-mode:screen" opacity="0.181768">
<path style="mix-blend-mode:screen" opacity="0.181768" d="M565.423 546.643C740.221 546.643 881.923 404.941 881.923 230.143C881.923 55.3449 740.221 -86.3569 565.423 -86.3569C390.625 -86.3569 248.923 55.3449 248.923 230.143C248.923 404.941 390.625 546.643 565.423 546.643Z" fill="url(#paint4_linear_1698_1580)"/>
</g>
<g style="mix-blend-mode:screen" opacity="0.179571">
<path style="mix-blend-mode:screen" opacity="0.179571" d="M1391.42 1009.14C1521.76 1009.14 1627.42 903.482 1627.42 773.143C1627.42 642.804 1521.76 537.143 1391.42 537.143C1261.08 537.143 1155.42 642.804 1155.42 773.143C1155.42 903.482 1261.08 1009.14 1391.42 1009.14Z" fill="url(#paint5_linear_1698_1580)"/>
</g>
<g style="mix-blend-mode:screen" opacity="0.217076">
<path style="mix-blend-mode:screen" opacity="0.217076" d="M1302.42 272.143C1311.26 272.143 1318.42 264.98 1318.42 256.143C1318.42 247.307 1311.26 240.143 1302.42 240.143C1293.58 240.143 1286.42 247.307 1286.42 256.143C1286.42 264.98 1293.58 272.143 1302.42 272.143Z" fill="url(#paint6_linear_1698_1580)"/>
</g>
<g style="mix-blend-mode:screen" opacity="0.261626">
<path style="mix-blend-mode:screen" opacity="0.261626" d="M1199.92 191.143C1207.38 191.143 1213.42 185.099 1213.42 177.643C1213.42 170.187 1207.38 164.143 1199.92 164.143C1192.46 164.143 1186.42 170.187 1186.42 177.643C1186.42 185.099 1192.46 191.143 1199.92 191.143Z" fill="url(#paint7_linear_1698_1580)"/>
</g>
<path fill-rule="evenodd" clip-rule="evenodd" d="M1486 1429H-47V648C208.5 701.306 464 727.959 719.5 727.959C975 727.959 1230.5 701.306 1486 648V1429Z" fill="white"/>
</g>
<defs>
<linearGradient id="paint0_linear_1698_1580" x1="2163.36" y1="538.928" x2="1660.34" y2="-488.314" gradientUnits="userSpaceOnUse">
<stop stop-color="#645AFF"/>
<stop offset="0.637566" stop-color="#E40C5B"/>
<stop offset="1" stop-color="#FF4C3B"/>
</linearGradient>
<linearGradient id="paint1_linear_1698_1580" x1="1165.65" y1="394.755" x2="1159.9" y2="404.298" gradientUnits="userSpaceOnUse">
<stop stop-color="white"/>
<stop offset="1"/>
</linearGradient>
<linearGradient id="paint2_linear_1698_1580" x1="1047" y1="951.251" x2="1361.91" y2="1141.22" gradientUnits="userSpaceOnUse">
<stop stop-color="white"/>
<stop offset="1"/>
</linearGradient>
<linearGradient id="paint3_linear_1698_1580" x1="-41.369" y1="579.973" x2="-103.251" y2="682.557" gradientUnits="userSpaceOnUse">
<stop stop-color="white"/>
<stop offset="1"/>
</linearGradient>
<linearGradient id="paint4_linear_1698_1580" x1="716.436" y1="210.16" x2="414.41" y2="27.9666" gradientUnits="userSpaceOnUse">
<stop stop-color="white"/>
<stop offset="1"/>
</linearGradient>
<linearGradient id="paint5_linear_1698_1580" x1="1142.97" y1="847.596" x2="1368.17" y2="983.45" gradientUnits="userSpaceOnUse">
<stop stop-color="white"/>
<stop offset="1"/>
</linearGradient>
<linearGradient id="paint6_linear_1698_1580" x1="1294.79" y1="245.923" x2="1285.58" y2="261.191" gradientUnits="userSpaceOnUse">
<stop stop-color="white"/>
<stop offset="1"/>
</linearGradient>
<linearGradient id="paint7_linear_1698_1580" x1="1193.48" y1="169.02" x2="1185.71" y2="181.902" gradientUnits="userSpaceOnUse">
<stop stop-color="white"/>
<stop offset="1"/>
</linearGradient>
<clipPath id="clip0_1698_1580">
<rect width="1439" height="824" fill="white"/>
</clipPath>
</defs>
</svg>
